<svg width="116" height="23" viewBox="0 0 116 23" fill="none" xmlns="http://www.w3.org/2000/svg">
<g id="Social icons">
<path id="Vector" fill-rule="evenodd" clip-rule="evenodd" d="M46.945 0.0673084C48.118 0.0122379 48.492 0 51.48 0C54.468 0 54.842 0.0132577 56.014 0.0673084C57.186 0.121359 57.986 0.312066 58.686 0.588439C59.419 0.87093 60.084 1.31251 60.634 1.88362C61.194 2.4435 61.626 3.12066 61.902 3.86921C62.174 4.58309 62.36 5.39895 62.414 6.59215C62.468 7.79044 62.48 8.17185 62.48 11.2181C62.48 14.2653 62.467 14.6467 62.414 15.843C62.361 17.0362 62.174 17.852 61.902 18.5659C61.626 19.3146 61.1933 19.9928 60.634 20.5535C60.084 21.1246 59.419 21.5652 58.686 21.8467C57.986 22.1241 57.186 22.3138 56.016 22.3688C54.842 22.4239 54.468 22.4361 51.48 22.4361C48.492 22.4361 48.118 22.4229 46.945 22.3688C45.775 22.3148 44.975 22.1241 44.275 21.8467C43.5409 21.5652 42.8758 21.1239 42.326 20.5535C41.7664 19.9933 41.3333 19.3154 41.057 18.5669C40.786 17.853 40.6 17.0372 40.546 15.844C40.492 14.6457 40.48 14.2643 40.48 11.2181C40.48 8.17083 40.493 7.78942 40.546 6.59419C40.599 5.39895 40.786 4.58309 41.057 3.86921C41.3337 3.12075 41.7671 2.4428 42.327 1.8826C42.876 1.31201 43.5405 0.870363 44.274 0.588439C44.974 0.312066 45.774 0.122379 46.944 0.0673084H46.945ZM55.925 2.08656C54.765 2.03251 54.417 2.02129 51.48 2.02129C48.543 2.02129 48.195 2.03251 47.035 2.08656C45.962 2.13653 45.38 2.31908 44.992 2.47307C44.479 2.67704 44.112 2.91874 43.727 3.31137C43.362 3.67346 43.0812 4.11426 42.905 4.60145C42.754 4.99714 42.575 5.59068 42.526 6.68495C42.473 7.86795 42.462 8.22285 42.462 11.2181C42.462 14.2133 42.473 14.5682 42.526 15.7512C42.575 16.8455 42.754 17.439 42.905 17.8347C43.081 18.3211 43.362 18.7627 43.727 19.1248C44.082 19.497 44.515 19.7836 44.992 19.9631C45.38 20.1171 45.962 20.2996 47.035 20.3496C48.195 20.4036 48.542 20.4148 51.48 20.4148C54.418 20.4148 54.765 20.4036 55.925 20.3496C56.998 20.2996 57.58 20.1171 57.968 19.9631C58.481 19.7591 58.848 19.5174 59.233 19.1248C59.598 18.7627 59.879 18.3211 60.055 17.8347C60.206 17.439 60.385 16.8455 60.434 15.7512C60.487 14.5682 60.498 14.2133 60.498 11.2181C60.498 8.22285 60.487 7.86795 60.434 6.68495C60.385 5.59068 60.206 4.99714 60.055 4.60145C59.855 4.07828 59.618 3.704 59.233 3.31137C58.8779 2.93921 58.4457 2.65278 57.968 2.47307C57.58 2.31908 56.998 2.13653 55.925 2.08656ZM50.075 14.6763C50.8596 15.0094 51.7334 15.0544 52.5469 14.8035C53.3605 14.5526 54.0634 14.0215 54.5356 13.3008C55.0078 12.5801 55.22 11.7146 55.136 10.8521C55.052 9.98953 54.677 9.18349 54.075 8.57162C53.6912 8.1805 53.2272 7.88101 52.7163 7.69473C52.2054 7.50844 51.6604 7.43999 51.1205 7.4943C50.5805 7.54861 50.0591 7.72433 49.5938 8.00881C49.1284 8.2933 48.7307 8.67947 48.4293 9.13951C48.1278 9.59957 47.9302 10.1221 47.8505 10.6694C47.7708 11.2167 47.8111 11.7752 47.9685 12.3047C48.1259 12.8342 48.3965 13.3216 48.7607 13.7317C49.1249 14.1417 49.5738 14.4644 50.075 14.6763ZM47.482 7.14081C48.007 6.60538 48.6303 6.18065 49.3163 5.89087C50.0023 5.6011 50.7375 5.45196 51.48 5.45196C52.2225 5.45196 52.9577 5.6011 53.6437 5.89087C54.3297 6.18065 54.953 6.60538 55.478 7.14081C56.003 7.67624 56.4195 8.3119 56.7036 9.01147C56.9878 9.71105 57.134 10.4609 57.134 11.2181C57.134 11.9753 56.9878 12.7251 56.7036 13.4247C56.4195 14.1242 56.003 14.7599 55.478 15.2953C54.4176 16.3767 52.9795 16.9842 51.48 16.9842C49.9804 16.9842 48.5423 16.3767 47.482 15.2953C46.4216 14.214 45.826 12.7473 45.826 11.2181C45.826 9.6888 46.4216 8.22217 47.482 7.14081ZM58.388 6.31067C58.5181 6.18551 58.6222 6.035 58.6943 5.86804C58.7663 5.70109 58.8048 5.52109 58.8074 5.33871C58.81 5.15633 58.7767 4.97526 58.7095 4.80624C58.6422 4.63722 58.5424 4.48367 58.4159 4.35469C58.2895 4.22571 58.1389 4.12392 57.9732 4.05535C57.8074 3.98678 57.6299 3.95282 57.451 3.95547C57.2722 3.95813 57.0957 3.99736 56.932 4.07083C56.7683 4.1443 56.6207 4.25052 56.498 4.38321C56.2593 4.64125 56.1286 4.98401 56.1337 5.33871C56.1388 5.69341 56.2792 6.03214 56.5251 6.28298C56.7711 6.53382 57.1032 6.67702 57.451 6.6822C57.7989 6.68737 58.135 6.5541 58.388 6.31067Z" fill="#FCFCFC"/>
<path id="Vector_2" d="M115.123 4.01515C114.288 4.39249 113.391 4.64744 112.448 4.76268C113.421 4.16893 114.149 3.23444 114.496 2.13357C113.582 2.68733 112.581 3.07711 111.538 3.28598C110.836 2.52199 109.907 2.01561 108.894 1.84545C107.882 1.67529 106.842 1.85087 105.937 2.34494C105.032 2.839 104.313 3.62391 103.89 4.57779C103.468 5.53168 103.366 6.60117 103.6 7.62023C101.748 7.52538 99.9356 7.03439 98.2814 6.17912C96.6272 5.32385 95.1678 4.12342 93.998 2.65573C93.598 3.3594 93.368 4.17526 93.368 5.04415C93.3675 5.82635 93.5564 6.59657 93.9179 7.28648C94.2793 7.97638 94.8022 8.56463 95.44 8.99903C94.7003 8.97503 93.9769 8.77119 93.33 8.40448V8.46566C93.3299 9.56273 93.702 10.626 94.3832 11.4752C95.0643 12.3243 96.0126 12.9069 97.067 13.1242C96.3808 13.3136 95.6613 13.3415 94.963 13.2058C95.2605 14.1498 95.84 14.9752 96.6204 15.5666C97.4007 16.158 98.3429 16.4857 99.315 16.5039C97.6648 17.825 95.6269 18.5416 93.529 18.5385C93.1574 18.5386 92.7861 18.5164 92.417 18.4722C94.5465 19.8685 97.0253 20.6096 99.557 20.6067C108.127 20.6067 112.812 13.368 112.812 7.08992C112.812 6.88596 112.807 6.67995 112.798 6.47599C113.709 5.8039 114.496 4.97164 115.121 4.01821L115.123 4.01515Z" fill="#FCFCFC"/>
<path id="Vector_3" d="M7.2 7.54684V5.34402C7.2 4.38946 7.416 3.87547 8.928 3.87547H10.8V0.204102H7.92C4.32 0.204102 2.88 2.6272 2.88 5.34402V7.54684H0V11.2182H2.88V22.2323H7.2V11.2182H10.368L10.8 7.54684H7.2Z" fill="#FCFCFC"/>
</g>
</svg>
